<?xml version="1.0" encoding="utf-8"?>
<!-- Generator: Adobe Illustrator 21.0.2, SVG Export Plug-In . SVG Version: 6.00 Build 0)  -->
<svg version="1.1" id="Capa_1" xmlns="http://www.w3.org/2000/svg" xmlns:xlink="http://www.w3.org/1999/xlink" x="0px" y="0px"
	 viewBox="0 0 1024 200" style="enable-background:new 0 0 1024 200;" xml:space="preserve">
<style type="text/css">
	.st0{fill:#C60E0B;}
</style>
<g>
	<g>
		<path class="st0" d="M207.6,88.8c38.8,5.8,78.3,2.5,115.6-9.8c2.8-0.9,2.1-4.6-0.7-4.9c-29-2.7-58.3-2.2-87.2,1.6
			c-15.1,2-30,4.9-44.7,8.7c-6.8,1.8-13.6,3.7-20.3,5.8c-5.3,1.7-12.1,3-16.3,6.9c-6.3,6-2.7,13.7,3.7,17.7c9.5,6,21.6,5,32.3,4.9
			c27.3-0.3,54.6-4.3,80.9-11.6c29.3-8.1,57.4-20.5,83.2-36.6c2.2-1.4,1.2-4.4-1.3-4.7c-77.5-7-155.9-3.5-232.4,10.5
			c-22,4-43.8,8.9-65.3,14.6c-2.7,0.7-2.2,5.1,0.7,4.9c56.9-3.2,113.8-7.4,170.6-12.7c56.4-5.3,112.5-12.6,168.9-18.4
			c56-5.7,111.7-5,167.9-3.6c28.1,0.7,56.2,1.4,84.4,2.1c13.9,0.3,28,0.3,41.9,1.4c14,1.1,27,5.1,40.2,9.6
			c60.9,20.6,121.8,41.3,182.7,61.9c-0.4-1.4-0.7-2.8-1.1-4.2c-38,32.3-89.4,47.4-138.8,40.7c0.4,1.4,0.7,2.8,1.1,4.2
			c14.8-17.8,29.6-35.6,44.4-53.4c1.5-1.8,0.4-4-1.8-4.3c-59.2-7-119-4.9-178.5-3.9c-59.9,1-119.9,2-179.8,3.1
			c-59.9,1.1-119.8,2.3-179.8,3.5c-59.5,1.2-119.4,0.8-178.9,4.8c-65,4.3-126.8,22.6-188.6,42.1c0.6,1.5,1.3,3,1.9,4.6
			c50.5-26.5,107.8-33.8,164-37c61.2-3.6,122.9-6,184.2-5.1c17.3,0.2,34.8,0.5,52.1,1.8c9.6,0.7,29.6,4.9,27.3,18.4
			c-0.3,1.6,1.1,3.9,3.1,3.1c62.3-24.9,120.5-59,172.7-101.1c-1.4-0.8-2.8-1.6-4.2-2.4C501,77,496,103.6,496.4,130.4
			c0,1.8,2.2,3.3,3.8,2.2c27-19.3,54.1-38.7,81.1-58c12.4-8.8,24.5-18.9,38.1-25.7c6.8-3.4,14.4-6,22.1-5.2
			c8.2,0.8,13.7,5.9,19.9,10.7c9.6,7.5,20.2,9.3,32,6.4c6.2-1.5,12.2-4.1,18.1-6.6c6.5-2.8,13.7-7,20.8-8.1
			c15-2.4,9.2,19.4,13.5,27.9c4.1,8.1,13,9.9,21.4,8.7c14-2.1,26.7-10.9,39-17.4c16.4-8.8,32.7-17.5,49.1-26.3
			c-1.1-0.3-2.3-0.6-3.4-0.9c11.4,18.4,2.9,54.5,33.1,55.8c13.1,0.5,28.3-2.2,40.6-6.5c11.8-4.1,22.3-11,27.6-22.7
			c0.5-1.2,0.4-2.8-0.9-3.4c-75.7-38.9-164.9-47.1-247.2-26.8C664,44.6,624.7,61.8,590,85.9c-17.8,12.3-33.6,26.8-49.7,41.2
			c-17.4,15.4-36.5,30.5-59.9,35.4c-29.9,6.2-61.8-4.5-90-13.6c-29-9.4-57.2-21-84.5-34.7c0.3,1.1,0.6,2.3,0.9,3.4
			c9.3-18.2,31.4-22.7,49.9-25.5c26.9-3.9,53.9-6.9,81-9.3c53.2-4.7,106.6-6.6,160.1-6.4c106.9,0.4,213.6,9.4,319.6,22.3
			c60.4,7.3,120.7,16,180.9,25.1c1.5,0.2,3.2-0.6,3.2-2.4c-0.6-15.5-9.9-28.5-22.6-36.8c-15.8-10.3-35.2-11.6-53.5-10.3
			c-20.1,1.5-40.1,4.8-60,7.8c-20.9,3.2-41.7,6.8-62.5,10.8c-81.9,15.9-162.6,39-238.8,73.1c-10.6,4.8-21.1,9.7-31.5,14.9
			c-6.2,3.1-12.1,6.2-19.2,4c-5.7-1.8-11-5.6-16.3-8.2c-20.4-9.8-42.5-15.2-65.1-16.5c0.6,1.4,1.2,2.8,1.8,4.3
			c37.5-29.2,86-39.4,131.8-47c52.1-8.6,105.2-11.8,158-9.7c29.9,1.2,59.7,4.2,89.3,8.8c0.4-1.6,0.9-3.2,1.3-4.8
			C823.4,98.7,732,90.7,640.5,86c-92.2-4.7-184.6-6.2-276.9-6.4c-52.2-0.1-104.4,0.1-156.7,0.4c0.6,1.4,1.2,2.8,1.8,4.3
			c10-12.3,23-21.5,38-26.7c-1.1-0.8-2.1-1.6-3.2-2.4c1,29,0.7,57.9-0.9,86.9c-0.1,1.9,2.2,3.2,3.8,2.2
			c25.1-16.1,48.6-34.4,70.4-54.8c-1.4-0.6-2.8-1.2-4.3-1.8c0.2,9.7,0.4,19.5,0.6,29.2c0,2.1,2.8,3.4,4.3,1.8
			c11.8-13,24.8-24.7,39-35.1c-1.2-0.9-2.4-1.9-3.7-2.8c-2.2,10.3-4.4,20.6-6.6,30.9c1.5-0.2,3-0.4,4.6-0.6
			c-11.6-15.3-23.2-30.7-34.8-46c-4.6-6-8.9-12.6-14.6-17.7c-5.9-5.2-13-8.3-20.4-11c-34.5-12.6-70.5-24.1-107.3-26.6
			c-31.1-2.2-62.2,3.1-89,19.7C62,43.3,43,64.6,36.5,90.7c-3.8,15.1-1.9,30.4-1,45.8c0.9,15.5,1,32.5-11.6,43.6
			c1.4,0.6,2.8,1.2,4.3,1.8c-2.8-25.9-14.5-49.6-18.3-75.2c-3-20.8-0.1-46,17.9-59.5c16.5-12.4,38.6-8.8,55.6,0.8
			c19.5,11.1,32.5,29.4,39.2,50.6c8.4,26.6,6.6,56-5.4,81.3c-0.9,1.9,0.6,4.2,2.8,3.7c142.4-35.2,285.3-68.2,428.7-99
			c143.2-30.7,286.9-59,430.9-85.6c33.1-6.1,69-13.2,94.9-36.4c21.4-19.2,35.2-49.8,25.4-78.2c-1-3-5.9-1.7-4.8,1.3
			c9.4,27.4-4.5,56.5-25.4,74.5c-24.1,20.7-57.1,27.6-87.4,33.2C912.2,6.4,842,19.4,772,33.3c-140,27.7-279.7,57.5-418.8,89.5
			c-78.3,18-156.5,36.6-234.5,55.9c0.9,1.2,1.9,2.4,2.8,3.7C142,138.7,134.7,78.5,94,48.8C77.8,37,55.6,29.6,36,36.9
			C14.9,44.8,5.2,66.5,4,87.7c-1.8,32.7,15.7,62.1,19.2,94.1c0.2,2.2,2.5,3.3,4.3,1.8c19.9-17.4,12.1-47.1,11.7-70.1
			c-0.5-28,13.3-52.7,34.6-70.3c53.9-44.5,126.4-28.8,186.9-8.5c9.2,3.1,18.8,5.8,27.5,10.1c8.9,4.4,14.6,11.3,20.5,19.1
			c12.5,16.6,25.1,33.1,37.6,49.7c1.2,1.6,4.1,1.7,4.6-0.6c2.2-10.3,4.4-20.6,6.6-30.9c0.4-1.9-1.8-4.2-3.7-2.8
			c-14.5,10.6-27.9,22.6-40,35.9c1.4,0.6,2.8,1.2,4.3,1.8c-0.2-9.7-0.4-19.5-0.6-29.2c0-2.2-2.7-3.2-4.3-1.8
			c-21.5,20.1-44.6,38.1-69.4,54c1.3,0.7,2.5,1.4,3.8,2.2c1.6-28.9,1.9-57.9,0.9-86.9c-0.1-1.5-1.6-3-3.2-2.4
			c-15.8,5.4-29.7,14.9-40.2,28c-1.3,1.6-0.6,4.3,1.8,4.3c92-0.4,184-0.9,276,0.8c91.5,1.6,183,5.3,274.1,13.2
			c52.1,4.5,104.1,10.3,155.9,17.8c3.1,0.5,4.5-4.3,1.3-4.8c-53.4-8.4-107.6-11.4-161.6-8.6c-51.2,2.6-103.7,9-153,23.7
			c-24.9,7.4-48.8,18-69.4,34.1c-1.8,1.4-0.2,4.2,1.8,4.3c20.9,1.1,41.6,6,60.6,14.9c7.6,3.5,15.2,9.5,23.8,10.5
			c8.5,1.1,16.4-4.3,23.6-7.8c36.6-18,74.6-33.2,113.3-46.1c76.3-25.4,155.4-41.8,235-53c22.6-3.2,46.9-8.1,69.5-2.7
			c19.1,4.5,37.9,19.3,38.7,40.3c1.1-0.8,2.1-1.6,3.2-2.4c-108.7-16.4-217.7-31.4-327.4-40c-108.9-8.6-218.6-10.8-327.5-1.8
			c-30.1,2.5-60.2,5.7-90.1,10.2c-19.6,2.9-42.3,8.5-52.1,27.6c-0.6,1.1-0.4,2.8,0.9,3.4c23.4,11.7,47.5,22,72.2,30.6
			c24.2,8.5,49.5,16.9,75.1,19.5c24,2.4,46.2-3.4,66.2-16.6c18.5-12.2,34.1-28.3,50.9-42.6c66.1-56.4,154.6-83.9,240.9-80.4
			c48.9,2,97.4,14.2,141,36.6c-0.3-1.1-0.6-2.3-0.9-3.4c-5.1,11.3-15.4,17.6-26.9,21.1c-11.5,3.6-25,6.1-37,5.5
			c-13.9-0.7-18.2-11.7-20.4-23.5c-1.9-10.2-2.9-20.8-8.4-29.8c-0.7-1.2-2.2-1.5-3.4-0.9c-14.3,7.7-28.6,15.3-42.9,23
			c-12.4,6.6-25,15.4-38.7,19.1c-5.2,1.4-11.6,2.4-16.5-0.4c-5.6-3.2-5.9-9.9-6.3-15.6c-0.5-8.4-1.4-18.8-11.9-19.8
			c-5.8-0.6-11.7,2.3-16.9,4.5c-6.7,2.8-13.2,5.9-20,8.4c-6.6,2.4-13.7,4.3-20.8,3.3c-8.1-1.1-13.5-6.1-19.7-10.9
			c-23.8-18.3-49.7,2.4-69.5,16.6c-30.6,21.9-61.2,43.7-91.7,65.6c1.3,0.7,2.5,1.4,3.8,2.2C501,104,506,78,516.2,53.6
			c1.1-2.6-2.5-3.8-4.2-2.4c-51.5,41.5-109.1,75.2-170.5,99.8c1,1,2.1,2.1,3.1,3.1c4.2-24.5-33.5-24.9-48.6-25.5
			c-33.9-1.5-67.9-1.3-101.8-0.5c-33.4,0.8-66.7,2.1-100.1,3.7c-29.9,1.4-59.8,3.4-89.4,8.3c-33,5.5-65.2,14.8-94.9,30.3
			c-2.5,1.3-0.8,5.4,1.9,4.6c55.2-17.3,110.8-34.7,168.7-40.4c29.5-2.9,59.1-3.3,88.7-4c29.6-0.7,59.1-1.3,88.7-1.9
			c119.4-2.5,238.9-4.8,358.4-6.8c66.5-1.1,133.6-4.2,199.8,3.6c-0.6-1.4-1.2-2.8-1.8-4.3c-14.8,17.8-29.6,35.6-44.4,53.4
			c-1,1.3-1,3.9,1.1,4.2c51.4,7,104.2-8.4,143.7-42c1.5-1.3,0.5-3.6-1.1-4.2c-54.5-18.5-109.1-37-163.6-55.5
			c-13.1-4.4-26.1-9.4-39.4-12.8c-12.3-3.1-24.8-3.8-37.4-4.1c-28.8-0.8-57.7-1.4-86.5-2.2c-56.1-1.4-112.2-3.8-168.2,0.8
			c-56.7,4.6-113,12.8-169.6,18.3c-64.2,6.3-128.5,11.3-192.9,14.9c0.2,1.6,0.4,3.3,0.7,4.9C131.5,77.1,209.3,67.5,287,68.5
			c21.9,0.3,43.9,1.5,65.7,3.5c-0.4-1.6-0.8-3.1-1.3-4.7c-41.3,25.7-88.4,41.8-136.9,46.2c-12,1.1-24,1.5-36,1.2
			c-4.9-0.1-9.7-0.2-14.3-2c-5.4-2.1-13.1-8-5.3-13c5-3.2,12.3-4.5,17.9-6.2c6.4-1.9,12.8-3.7,19.3-5.3c12.6-3.1,25.4-5.5,38.2-7.3
			c29.2-4,58.8-4.5,88.1-1.8c-0.2-1.6-0.4-3.3-0.7-4.9c-36.4,12-75,15.4-112.9,9.8C205.8,83.5,204.4,88.3,207.6,88.8L207.6,88.8z"/>
	</g>
</g>
<rect x="518" y="4.3" class="st0" width="37.8" height="37.8"/>
<rect x="546.8" y="19.6" class="st0" width="37.8" height="37.8"/>
<rect x="484.7" y="19.6" class="st0" width="37.8" height="37.8"/>
<rect x="518" y="38.3" class="st0" width="37.8" height="37.8"/>
</svg>
